/* XPM */
static const char *splash[]={
"92 68 21 1",
"# c #000000",
"a c #000099",
"p c #0000ff",
"s c #006600",
"b c #009900",
"c c #009999",
"r c #333333",
"h c #666666",
"i c #6666ff",
"j c #66ff66",
"k c #66ffff",
"d c #990000",
"e c #990099",
"f c #996600",
"g c #999999",
"l c #ff6666",
"m c #ff66ff",
". c #ff9900",
"q c #ffff00",
"n c #ffff66",
"o c #ffffff",
".............####aaaabbbbccccddddeeeeffffgggghhhhiiiijjjjkkkkllllmmmmnnnnoooo###############",
".....p.......####aaaabbbbccccddddeeeeffffgggghhhhiiiijjjjkkkkllllmmmmnnnnoooo###############",
".....p.......####aaaabbbbccccddddeeeeffffgggghhhhiiiijjjjkkkkllllmmmmnnnnoooo###############",
"......p......####aaaabbbbccccddddeeeeffffgggghhhhiiiijjjjkkkkllllmmmmnnnnoooo###############",
".....ppppp...####aaaabbbbccccddddeeeeffffgggghhhhiiiijjjjkkkkllllmmmmnnnnoooo###############",
".............###############################################################################",
".............###############################################################################",
"......pp.....#######################################################################qqqq#q##",
".....p.p.p...###############################################################################",
".....p.p.p...#########################rh####################################################",
".....p.p.p...#######################rhr#ggggghhr############################################",
"......ppp....#####################rhr###hggggggggh##########################################",
".............###################rhr######ggggggggg#######################################q##",
".........p...#################rhr########hggggggggh#######hhh#######################qqqqqq##",
".....p...p...################rr###########ggggggggg######hhhhhh#####################q####q##",
"..ppppppp....#################h###########hggggggggh###hhhhhhhhh############################",
".....p.......#################h############ggggggggg#rrhhhh###hhhh##########################",
".............##################h###########hgggggggghrhhhh#####hhhhh##################qqqq##",
".............##################h############ggggggggghhhhh#######hhhh#################q##q##",
".....p..p....###################h###########hgggggggghhhh##########hhh################q##q##",
".....p.p.p...###################h############ggggggggghhh###########hhh################qq###",
".....p.p.p...##################s#h###########hgggggggghh###########hhh#s####################",
".....p.p.p...#################s##h############ggggggggg############hh###s##############qqq##",
"......p..p...################s####h###########hggggggggh##########hhr####s############q#####",
".............###############s#####h############ggggggggghh#######hhh######s###########q#####",
".....ppppp...##############s#######h###########hgggggggghhhh#####hh########s##########qqqq##",
".....p..p....#############sbbbbbbbbbbbbbbbbbbbbbbbbbbbbbbbbbbbbbbbbbbbbbbbbbs###############",
".....p...p...##############sbbbbbbbbbbbbbbbbbbbbbbbbbbbbbbbbbbbbbbbbbbbbbbbs###########qqq##",
".....p...p...##############sbbbbbbbbbbbbbbbbbbbbbbbbbbbbbbbbbbbbbbbbbbbbbbbs##########q#q#q#",
"......ppp....##############sbbbbbbbbbbbbbbbbbbbbbbbbbbbbbbbbbbbbbbbbbbbbbbbs##########q#q#q#",
".............##############sbbbbbbbbbbbbbbbbbbbbbbbbbbbbbbbbbbbbbbbbbbbbbbbs###########q####",
".............##############sbbbbbbbbbbbbbbbbbbbbbbbbbbbbbbbbbbbbbbbbbbbbbbs#################",
".........p...###############sbbbbbbbbbbbbbbbbbbhhhhhhhhbbbbbbbbbbbbbbbbbbbs##############q##",
"..pppppppp...###############sbbbbbbbbbbbbbbbbbh#h#####hhbbbbbbbbbbbbbbbbbbs#########q#qqqq##",
"..p......p...###############sbbbbbbbbbbbbbbbbhh##h#####hhhbbbbbbbbbbbbbbbbs###########q##q##",
".............###############sbbbbbbbbbbbbbbbbh####h######hbbbbbbbbbbbbbbbbs#################",
".............###############sbbbbbbbbbbbbbbbh####hbh####hbbbbbbbbbbbbbbbbbs#################",
"....pp.pp....###############sbbbbbbbbbbbbbbbbh##hbbhh##hbbbbbbbbbbbbbbbbbs###########q##q###",
"...p..p..p...###############sbbbbbbbbbbbbhhhbbhhbbbhhhhbbhhbbbbbbbbbbbbbbs##########q##q#q##",
"...p..p..p...###############sbbbbbbbbbbbbhhhhhbbbbbbbbbhh##hbbbbbbbbbbbbbs##########q#q##q##",
"...p..p..p...################bbbbbbbbbbbbbh###hbbbbbbbbh###hbbbbbbbbbbbbbs###########q##q###",
"...ppppppp...################sbbbbbbbbbbbh#####hbbbbbbbh####bbbbbbbbbbbbbs##################",
".............################sbbbbbbbbbbbh####hhbbbbbbbbh###hbbbbbbbbbbbb###################",
".............################sbbbbbbbbbbbbh###hbbbbbbhbbh#hhbbbbbbbbbbbbs###################",
".............################sbbbbbbbbbbbbh##hhbbbbbbhhhh##hbbbbbbbbbbbbs###################",
".............################sbbbbbbbbbbbbbh#h#hhhbbh#####hbbbbbbbbbbbbbs###################",
".............################sbbbbbbbbbbbbbh#h####hbh#####hbbbbbbbbbbbbbs###################",
".............################sbbbbbbbbbbbbbbh#####hbh####hbbbbbbbbbbbbbbs##############qq###",
".............################sbbbbbbbbbbbbbbbhh###bbh###hhbbbbbbbbbbbbbs##############q##q##",
"...p.....p...#################sbbbbbbbbbbbbbbbbhhhbbbhhhbbbbbbbbbbbbbbbs##############q##q##",
"...p..p..p...#################sbbbbbbbbbbbbbbbbbbbbbbhbbbbbbbbbbbbbbbbbs###############qq###",
"...p..p..p...#################sbbbbbbbbbbbbbbbbbbbbbbbbbbbbbbbbbbbbbbbbs####################",
"...p..p..p...#################sbbbbbbbbbbbbbbbbbbbbbbbbbbbbbbbbbbbbbbbbs############qqqqqq##",
"...ppppppp...#################sbbbbbbbbbbbbbbbbbbbbbbbbbbbbbbbbbbbbbbbbs##############qqq###",
".............#################sbbbbbbbbbbbbbbbbbbbbbbbbbbbbbbbbbbbbbbbbs#############qq#####",
"....p...p....##################sbbbbbbbbbbbbbbbbbbbbbbbbbbbbbbbbbbbbbbs#############qqqqqq##",
"...p.....p...###################ssssssssssssssssssssssssssssssssssssss######################",
"...p.....p...###############################################################################",
"...p.....p...###############################################################################",
"....ppppp....###############################################################################",
".............####gg############################gg#######################g#####g#############",
"...ppppppp...###g##g##########################g##g######################g###################",
"....p........####g#####gg#g#g###ggg#ggg#######g#####gg##gg#g#ggg##g##g#ggg###gg##ggg###gg###",
".....pp......#####g###g###gg#g#g##g#g##g######g####g##g#g#g#gg##g#g##g##g#####g##g##g#g##g##",
"....p........###g##g##g###g####g##g#ggg#######g##g#g##g#g#g#gggg##g##g##g#g###g##g##g##ggg##",
"...ppppppp...####gg####gg#g#####ggg#g##########gg###gg##g#g#gg#####ggg###g###ggg#g##g####g##",
".............#######################g########################g#########################gg###",
".............###############################################################################"};
