/* XPM */
static const char *splash[]={
"31 24 7 1",
". c #000000",
"c c #006600",
"d c #009900",
"# c #333333",
"b c #666666",
"a c #999999",
"e c #ffff66",
"........##aaab.................",
"......##...aaaa................",
".....#.....aaaaa...bbb.........",
".....b......aaaa.#bb.bb........",
"............aaaaabb....bb......",
"......b......aaaabb.....bb.....",
".....c.......aaaaa......b.c....",
"....c..b......aaaab....b...c...",
"...cddddddddddddddddddddddddc..",
"e..eddeddddededdeededdeddedde..",
"ee.edededdeddededddeedededede..",
"e.eecededddedebebededeedeeece..",
"e..ecdedddedde..eebeddededeceee",
"....cdddddddb..d..bddddddddc...",
"....cddddddbdbddbbdbddddddd....",
".....ddddddb.bdddd..ddddddd....",
".....dddddd..bddddb.bdddddd....",
".....ddddddb.bdddbb.ddddddc....",
".....ddddddd...bb..bddddddc....",
".....ddddddddb.db.bddddddd.....",
".....cdddddddddddddddddddd.....",
".....cdddddddddddddddddddd.....",
".....cdddddddddddddddddddd.....",
"......ccccccccccccccccccc......"};
